inDegrees=no
DataType=double
version=3
OpenSimVersion=4.4-2022-10-11-798caa840
endheader
time	elv_angle	shoulder_elv	shoulder_rot	elbow_flexion	pro_sup	deviation	flexion
2.4020851434	0.4824414215	0.7332164095	0.4236945598	1.3967361635	-0.0627603982	-0.0389964607	0.2092458683
2.4062554301	0.4824414215	0.7332164095	0.4236945598	1.3967361635	-0.0627603982	-0.0389964607	0.2092458683
2.4104257168	0.4824414215	0.7332164095	0.4236945598	1.3967361635	-0.0627603982	-0.0389964607	0.2092458683
2.4145960035	0.4824414215	0.7332164095	0.4236945598	1.3967361635	-0.0627603982	-0.0389964607	0.2092458683
2.4187662902	0.4824414215	0.7332164095	0.4236945598	1.3967361635	-0.0627603982	-0.0389964607	0.2092458683
2.4229365769	0.4824414215	0.7332164095	0.4236945598	1.3967361635	-0.0627603982	-0.0389964607	0.2092458683
2.4271068636	0.4824414215	0.7332164095	0.4236945598	1.3967361635	-0.0627603982	-0.0389964607	0.2092458683
2.4312771503	0.4824414215	0.7332164095	0.4236945598	1.3967361635	-0.0627603982	-0.0389964607	0.2092458683
2.4354474370	0.4824414215	0.7332164095	0.4236945598	1.3967361635	-0.0627603982	-0.0389964607	0.2092458683
2.4396177237	0.4824414215	0.7332164095	0.4236945598	1.3967361635	-0.0627603982	-0.0389964607	0.2092458683
2.4437880104	0.4824414215	0.7332164095	0.4236945598	1.3967361635	-0.0627603982	-0.0389964607	0.2092458683
2.4479582971	0.4824414215	0.7332164095	0.4236945598	1.3967361635	-0.0627603982	-0.0389964607	0.2092458683
2.4521285838	0.4824414215	0.7332164095	0.4236945598	1.3967361635	-0.0627603982	-0.0389964607	0.2092458683
2.4562988705	0.4836225235	0.7238332220	0.4240446973	1.4102182541	-0.0533168181	-0.0390546148	0.2099378134
2.4604691573	0.4835828741	0.7170401913	0.4272600774	1.4171603391	-0.0516278859	-0.0364834847	0.2106524787
2.4646394440	0.4832941776	0.7104931349	0.4298146943	1.4250163448	-0.0490715084	-0.0342129334	0.2105479755
2.4688097307	0.4834893274	0.7026575264	0.4297689492	1.4369694889	-0.0412259676	-0.0330443387	0.2092139520
2.4729800174	0.4841720747	0.6943473274	0.4295601337	1.4446450748	-0.0353101049	-0.0282318120	0.2075129084
2.4771503041	0.4849277930	0.6862911767	0.4287245322	1.4502334761	-0.0314776095	-0.0228881494	0.2065133066
2.4813205908	0.4854837388	0.6789368679	0.4266088609	1.4596481999	-0.0265270311	-0.0215922855	0.2059347458
2.4854908775	0.4862353158	0.6726503691	0.4268247519	1.4687250663	-0.0229595489	-0.0198005003	0.2031531547
2.4896611642	0.4870827602	0.6658723206	0.4265445997	1.4769495673	-0.0190944725	-0.0189847138	0.2002479992
2.4938314509	0.4878781177	0.6581201255	0.4231839851	1.4849182510	-0.0131055091	-0.0202250352	0.1991340752
2.4980017376	0.4888891232	0.6518708462	0.4201427376	1.4910485604	-0.0072120396	-0.0189737698	0.1971870465
2.5021720243	0.4903624436	0.6468628683	0.4185226045	1.4952773651	-0.0040260137	-0.0178029219	0.1918578152
2.5063423110	0.4919708799	0.6421341313	0.4179964317	1.4993067029	-0.0028609632	-0.0182160045	0.1857508743
2.5105125977	0.4930149035	0.6373002285	0.4179226494	1.5051653454	-0.0000778684	-0.0176098633	0.1844133147
2.5146828844	0.4942164613	0.6319859828	0.4180674507	1.5101870347	0.0025242745	-0.0177013377	0.1788974594
2.5188531712	0.4956974322	0.6273083572	0.4181874077	1.5127759955	0.0040351323	-0.0177949618	0.1687862787
2.5230234579	0.4969213305	0.6247598291	0.4182691666	1.5137642333	0.0057070917	-0.0154059270	0.1625538190
2.5271937446	0.4983919584	0.6223685702	0.4193518261	1.5142095187	0.0078014766	-0.0138333529	0.1570874283
2.5313640313	0.5000088977	0.6196057872	0.4206803071	1.5151894111	0.0093034550	-0.0126668358	0.1488137998
2.5355343180	0.5015005145	0.6174077307	0.4208340580	1.5169483581	0.0096632330	-0.0097446602	0.1378567911
2.5397046047	0.5035900566	0.6162016588	0.4204193396	1.5179011215	0.0111263014	-0.0074073518	0.1289298742
2.5438748914	0.5059837981	0.6153764572	0.4197294725	1.5183494244	0.0134006517	-0.0054111030	0.1201415739
2.5480451781	0.5078286050	0.6142299045	0.4189752276	1.5191752116	0.0147787176	-0.0025679767	0.1090442612
2.5522154648	0.5087147451	0.6129584697	0.4187471512	1.5199861791	0.0143334499	0.0004813016	0.0994066299
2.5563857515	0.5098713869	0.6121528238	0.4187322946	1.5200128977	0.0129310429	0.0024098446	0.0917073435
2.5605560382	0.5116437660	0.6119476735	0.4185728457	1.5194799810	0.0113615828	0.0031469145	0.0836084407
2.5647263249	0.5125140817	0.6117176370	0.4184897996	1.5197158219	0.0094897127	0.0042924188	0.0721995385
2.5688966116	0.5127583802	0.6111756033	0.4189990797	1.5198445977	0.0082942611	0.0054596968	0.0595075896
2.5730668983	0.5131204853	0.6106953835	0.4197392597	1.5194717960	0.0084129725	0.0062498848	0.0489805369
2.5772371851	0.5139435127	0.6108666124	0.4197705483	1.5193193193	0.0092405114	0.0070007790	0.0423810535
2.5814074718	0.5147361000	0.6109605848	0.4198220069	1.5193299480	0.0086923053	0.0080311685	0.0360956902
2.5855777585	0.5152845087	0.6105700296	0.4200857428	1.5191297574	0.0084718081	0.0087021759	0.0283982562
2.5897480452	0.5157776045	0.6099697891	0.4202569300	1.5186410198	0.0110968738	0.0083747557	0.0208149998
2.5939183319	0.5164021462	0.6097812312	0.4207812737	1.5187570026	0.0122305488	0.0084259130	0.0162544906
2.5980886186	0.5170129399	0.6098624752	0.4216893759	1.5191195135	0.0113202056	0.0086435820	0.0136554495
2.6022589053	0.5174391764	0.6098289281	0.4225525638	1.5189786429	0.0102130717	0.0082432926	0.0107754744
2.6064291920	0.5178856569	0.6098720035	0.4228333615	1.5186317424	0.0092152704	0.0078038732	0.0083483251
2.6105994787	0.5185154080	0.6101593398	0.4229113238	1.5182775749	0.0091794322	0.0078164506	0.0062657352
2.6147697654	0.5192730312	0.6106020141	0.4231334493	1.5180296967	0.0099203780	0.0081686515	0.0042829447
2.6189400521	0.5198766937	0.6108273993	0.4231089479	1.5180082772	0.0095613210	0.0082123574	0.0028989955
2.6231103388	0.5203234210	0.6107289309	0.4225813508	1.5181239321	0.0090816542	0.0085008473	0.0027661453
2.6272806255	0.5207577454	0.6105638447	0.4218747287	1.5181475840	0.0090116514	0.0092693417	0.0038610515
2.6314509123	0.5212737931	0.6107262797	0.4216622133	1.5179018683	0.0084306406	0.0099054437	0.0050610816
2.6356211990	0.5215710436	0.6108974853	0.4215378328	1.5177342478	0.0081027848	0.0101578544	0.0043362706
2.6397914857	0.5215789063	0.6109949767	0.4214130074	1.5177886836	0.0085470295	0.0101906285	0.0024450778
2.6439617724	0.5215504579	0.6112138560	0.4215944925	1.5179094629	0.0093371356	0.0102906870	0.0017392958
2.6481320591	0.5217442997	0.6113721248	0.4218570445	1.5179992173	0.0093163680	0.0102671071	0.0009766552
2.6523023458	0.5219424730	0.6112279874	0.4219779263	1.5179772311	0.0089850288	0.0100902525	0.0001957195
2.6564726325	0.5218631526	0.6108290184	0.4219515736	1.5178408407	0.0092452074	0.0099661149	0.0001410155
2.6606429192	0.5218246190	0.6107812636	0.4220507584	1.5177660100	0.0091049562	0.0101612975	-0.0000498497
2.6648132059	0.5218609449	0.6109498877	0.4221741796	1.5179564043	0.0086619851	0.0103776321	-0.0007921390
2.6689834926	0.5219472126	0.6109642357	0.4221880584	1.5183383176	0.0083691895	0.0103707432	-0.0014610401
2.6731537793	0.5222409941	0.6108470680	0.4222734865	1.5184340412	0.0081207593	0.0104679004	-0.0007809558
2.6773240660	0.5224726954	0.6108028740	0.4224777324	1.5183055018	0.0085163801	0.0105746880	-0.0008387053
2.6814943527	0.5223645595	0.6109288513	0.4226712240	1.5181951333	0.0091010843	0.0105371854	-0.0026478960
2.6856646394	0.5219780952	0.6111240393	0.4226625638	1.5182114816	0.0082943061	0.0103979311	-0.0041932094
2.6898349262	0.5218605500	0.6113884063	0.4226488854	1.5181985402	0.0077920158	0.0102631839	-0.0048168321
2.6940052129	0.5220884207	0.6116054118	0.4226415128	1.5181912871	0.0082170142	0.0102405762	-0.0047978972
2.6981754996	0.5222554175	0.6116216203	0.4224552087	1.5183873714	0.0084389394	0.0103787944	-0.0046369563
2.7023457863	0.5224554386	0.6116829653	0.4223000207	1.5185948933	0.0086840819	0.0105640771	-0.0040057656
2.7065160730	0.5227005224	0.6118116540	0.4221857247	1.5187027634	0.0087058691	0.0105858825	-0.0032184413
2.7106863597	0.5227957259	0.6119173743	0.4220378429	1.5186628584	0.0080114366	0.0104008159	-0.0028544278
2.7148566464	0.5224676510	0.6122101244	0.4221156661	1.5182949012	0.0071074675	0.0104508677	-0.0025180448
2.7190269331	0.5219770195	0.6123819081	0.4222309045	1.5179620557	0.0066310861	0.0104252829	-0.0021837327
2.7231972198	0.5217557962	0.6121312403	0.4220964823	1.5179761999	0.0067108655	0.0100638681	-0.0020695120
2.7273675065	0.5218494843	0.6118213211	0.4218500507	1.5179310252	0.0066161670	0.0100655757	-0.0023008286
2.7315377932	0.5217408594	0.6116849966	0.4218076350	1.5177792707	0.0062985764	0.0102424825	-0.0034137081
2.7357080799	0.5212264946	0.6116995047	0.4219329076	1.5176473316	0.0060819613	0.0102916085	-0.0045911453
2.7398783666	0.5208364993	0.6116247289	0.4217189664	1.5176049825	0.0062264754	0.0103863838	-0.0034716493
2.7440486533	0.5206396233	0.6113295130	0.4214209280	1.5176556533	0.0065399259	0.0105144942	-0.0017868253
2.7482189401	0.5205253634	0.6107262553	0.4215690847	1.5177815908	0.0066764781	0.0105863120	-0.0027186776
2.7523892268	0.5235987756	0.6108652382	0.4188790205	1.5184364492	0.0000000000	0.0000000000	0.0000000000
2.7565595135	0.5235987756	0.6108652382	0.4188790205	1.5184364492	0.0000000000	0.0000000000	0.0000000000
2.7607298002	0.5235987756	0.6108652382	0.4188790205	1.5184364492	0.0000000000	0.0000000000	0.0000000000
2.7649000869	0.5235987756	0.6108652382	0.4188790205	1.5184364492	0.0000000000	0.0000000000	0.0000000000
2.7690703736	0.5235987756	0.6108652382	0.4188790205	1.5184364492	0.0000000000	0.0000000000	0.0000000000
2.7732406603	0.5235987756	0.6108652382	0.4188790205	1.5184364492	0.0000000000	0.0000000000	0.0000000000
2.7774109470	0.5235987756	0.6108652382	0.4188790205	1.5184364492	0.0000000000	0.0000000000	0.0000000000
2.7815812337	0.5235987756	0.6108652382	0.4188790205	1.5184364492	0.0000000000	0.0000000000	0.0000000000
2.7857515204	0.5235987756	0.6108652382	0.4188790205	1.5184364492	0.0000000000	0.0000000000	0.0000000000
2.7899218071	0.5235987756	0.6108652382	0.4188790205	1.5184364492	0.0000000000	0.0000000000	0.0000000000
2.7940920938	0.5235987756	0.6108652382	0.4188790205	1.5184364492	0.0000000000	0.0000000000	0.0000000000
